<svg width="1060" height="29" viewBox="0 0 1060 29" fill="none" xmlns="http://www.w3.org/2000/svg">
<path d="M0.666667 15.5C0.666667 22.8638 6.6362 28.8333 14 28.8333C21.3638 28.8333 27.3333 22.8638 27.3333 15.5C27.3333 8.1362 21.3638 2.16667 14 2.16667C6.6362 2.16667 0.666667 8.1362 0.666667 15.5ZM1032.67 15.5C1032.67 22.8638 1038.64 28.8333 1046 28.8333C1053.36 28.8333 1059.33 22.8638 1059.33 15.5C1059.33 8.1362 1053.36 2.16667 1046 2.16667C1038.64 2.16667 1032.67 8.1362 1032.67 15.5ZM14 18H1046V13H14V18Z" fill="white"/>
<circle cx="276.5" cy="15.5" r="13.5" fill="white"/>
<circle cx="530.5" cy="15.5" r="13.5" fill="white"/>
<circle cx="784.5" cy="13.5" r="13.5" fill="white"/>
</svg>
