<svg width="193" height="19" viewBox="0 0 193 19" fill="none" xmlns="http://www.w3.org/2000/svg">
<path d="M110.438 9.10889C107.188 9.10889 105.562 2.30374 100.688 2.30374C95.8125 2.30374 95.8125 6.84051 95.8125 6.84051C95.8125 6.84051 95.8125 2.30374 90.9375 2.30374C86.0625 2.30374 84.4375 9.10889 81.1875 9.10889C79.5625 9.10889 77.9375 6.84051 77.9375 6.84051C77.9375 6.84051 79.5625 18.1824 86.0625 18.1824C94.1875 18.1824 95.8125 11.3773 95.8125 11.3773C95.8125 11.3773 97.4375 18.1824 105.562 18.1824C112.062 18.1824 113.688 6.84051 113.688 6.84051C113.688 6.84051 112.062 9.10889 110.438 9.10889Z" fill="#D1A475"/>
<path d="M0.75 3.31244H73.0625" stroke="white" stroke-width="3.25"/>
<path d="M120.188 2.49994H192.5" stroke="white" stroke-width="3.25"/>
</svg>
