<svg width="199" height="51" viewBox="0 0 199 51" fill="none" xmlns="http://www.w3.org/2000/svg">
<path d="M37.3021 12.3507V23.5854C37.3021 27.0673 36.8262 29.6725 35.8743 31.4009C34.9474 33.1544 33.3693 34.0311 31.1399 34.0311C27.7081 34.0311 25.654 31.9645 24.9777 27.8313H24.9025C24.2763 32.8413 22.097 35.3462 18.3646 35.3462C15.6342 35.3462 13.7179 34.3192 12.6157 32.2651C11.5386 30.2111 11 27.2552 11 23.3976V12.3507H11.7139V14.793L36.5882 14.793V12.3507L37.3021 12.3507ZM24.3014 22.12H11.7139V23.886C11.7139 25.2638 12.1899 26.2282 13.1417 26.7793C14.0936 27.3304 15.4964 27.6059 17.3501 27.6059H19.3415C20.9948 27.6059 22.2348 27.2677 23.0614 26.5914C23.888 25.9151 24.3014 24.7127 24.3014 22.9842V22.12ZM36.5882 22.12L25.0153 22.12V23.097C25.0153 24.3996 25.4035 25.3013 26.1801 25.8023C26.9817 26.3284 28.1966 26.5914 29.8248 26.5914H31.5908C33.4445 26.5914 34.7345 26.3659 35.461 25.9151C36.2124 25.4642 36.5882 24.5999 36.5882 23.3224V22.12Z" fill="#D5924E"/>
<circle cx="17.9345" cy="24.4089" r="0.939361" fill="#D5924E"/>
<circle cx="31.0856" cy="24.4089" r="0.939361" fill="#D5924E"/>
<path d="M11.265 12.3851L11.1711 7.97012L30.8976 1.30066C27.8604 3.21069 23.2888 6.63623 29.3007 5.0581C35.3126 3.47998 38.0681 2.7097 38.6943 2.52183C35.5318 4.55711 29.9771 8.30829 33.0582 7.03076C36.1393 5.75323 38.663 4.68236 39.5398 4.30661C35.8762 6.90551 29.6765 11.69 34.1854 10.0367C38.6943 8.38344 41.9508 7.34388 43.0154 7.03076L37.2853 12.3851V15.2971H11.3589L11.265 12.3851Z" fill="#D5924E"/>
<path d="M37.2853 44.2295V15.2971L35.5944 42.9143L30.9916 45.2158L26.3887 47.5172L19.5783 45.2158L12.768 42.9143L11.3589 15.2971L11.1711 44.2295L26.3887 49.0202L37.2853 44.2295Z" fill="#D5924E"/>
<path d="M37.2853 15.2971V12.3851L43.0154 7.03076C41.9508 7.34388 38.6943 8.38344 34.1854 10.0367C29.6765 11.69 35.8762 6.90551 39.5398 4.30661C38.663 4.68236 36.1393 5.75323 33.0582 7.03076C29.9771 8.30829 35.5318 4.55711 38.6943 2.52183C38.0681 2.7097 35.3126 3.47998 29.3007 5.0581C23.2888 6.63623 27.8604 3.21069 30.8976 1.30066L11.1711 7.97012L11.265 12.3851L11.3589 15.2971M37.2853 15.2971H11.3589M37.2853 15.2971V44.2295L26.3887 49.0202L11.1711 44.2295L11.3589 15.2971M37.2853 15.2971L35.5944 42.9143L30.9916 45.2158M11.3589 15.2971L12.768 42.9143L19.5783 45.2158M19.5783 45.2158L26.3887 47.5172L30.9916 45.2158M19.5783 45.2158V38.1028C19.5783 37.2336 20.1745 36.478 21.0198 36.2757L24.6552 35.4057C24.9306 35.3398 25.2173 35.337 25.4939 35.3975L29.5917 36.2939C30.4617 36.4842 31.0785 37.2592 31.0688 38.1497L30.9916 45.2158" stroke="#D5924E" stroke-width="0.563617"/>
<path d="M51.8327 13.6979H63.0675C66.5494 13.6979 69.1546 14.1738 70.883 15.1257C72.6365 16.0526 73.5132 17.6307 73.5132 19.8601C73.5132 23.2919 71.4466 25.346 67.3134 26.0223V26.0975C72.3233 26.7237 74.8283 28.903 74.8283 32.6354C74.8283 35.3658 73.8013 37.2821 71.7472 38.3843C69.6931 39.4614 66.7373 40 62.8796 40H51.8327V39.2861H54.2751V14.4118H51.8327V13.6979ZM61.6021 26.6986V39.2861H63.3681C64.7458 39.2861 65.7102 38.8101 66.2613 37.8583C66.8124 36.9064 67.088 35.5036 67.088 33.6499V31.6585C67.088 30.0052 66.7498 28.7652 66.0735 27.9386C65.3971 27.112 64.1947 26.6986 62.4663 26.6986H61.6021ZM61.6021 14.4118V25.9847H62.579C63.8816 25.9847 64.7834 25.5965 65.2844 24.8199C65.8104 24.0183 66.0735 22.8034 66.0735 21.1752V19.4092C66.0735 17.5555 65.848 16.2655 65.3971 15.539C64.9462 14.7876 64.082 14.4118 62.8045 14.4118H61.6021ZM88.3243 32.5978V29.404C88.3243 26.9742 88.1865 25.2082 87.911 24.106C87.6605 22.9788 87.0593 22.4152 86.1074 22.4152C85.5563 22.4152 85.1054 22.578 84.7547 22.9036C84.4291 23.2042 84.1911 23.7177 84.0408 24.4442C83.8153 25.5714 83.7026 27.2873 83.7026 29.5919V32.5227C83.7026 35.2531 83.7778 36.8938 83.9281 37.4449C84.1034 37.996 84.2788 38.4469 84.4541 38.7976C84.7296 39.3988 85.2682 39.6994 86.0698 39.6994C87.0467 39.6994 87.6855 39.1358 87.9861 38.0086C88.2115 37.207 88.3243 35.4034 88.3243 32.5978ZM85.9947 40.3757C82.8635 40.3757 80.4963 39.5742 78.8931 37.971C77.2899 36.3678 76.4883 34.0758 76.4883 31.0949C76.4883 28.0889 77.34 25.7843 79.0434 24.1812C80.7718 22.5529 83.1891 21.7388 86.2953 21.7388C89.4014 21.7388 91.7185 22.4903 93.2465 23.9933C94.7745 25.4712 95.5386 27.7382 95.5386 30.7943C95.5386 37.1819 92.3573 40.3757 85.9947 40.3757ZM106.472 40.3757C103.24 40.3757 100.81 39.5491 99.1821 37.8958C97.5789 36.2175 96.7773 33.9004 96.7773 30.9446C96.7773 27.9637 97.6791 25.6841 99.4827 24.106C101.311 22.5279 103.628 21.7388 106.434 21.7388C112.12 21.7388 114.851 24.5945 114.625 30.3058H104.029V31.7712C104.029 34.2261 104.342 36.0797 104.969 37.3322C105.595 38.5847 106.684 39.2109 108.238 39.2109C111.143 39.2109 113.047 37.6579 113.949 34.5517L114.625 34.6644C114.149 36.468 113.285 37.8708 112.033 38.8728C110.805 39.8748 108.951 40.3757 106.472 40.3757ZM104.067 29.5543H107.937V27.7132C107.937 25.6841 107.812 24.3064 107.561 23.58C107.336 22.8285 106.86 22.4527 106.133 22.4527C105.432 22.4527 104.906 22.8535 104.555 23.6551C104.23 24.4317 104.067 25.7843 104.067 27.7132V29.5543ZM128.251 40V39.3237H129.979L125.733 30.6064L125.019 30.7943V39.3237H126.748V40H115.964V39.3237H118.03V12.4955H115.813V11.8192H125.019V30.0428L125.62 29.8173L134.075 22.7909H130.543V22.1146H137.945V22.7909H135.315L130.843 26.5859L137.344 39.3237H138.696V40H128.251ZM152.979 29.8925C152.979 27.3124 152.854 25.5839 152.603 24.7072C152.353 23.8054 151.864 23.3545 151.138 23.3545C150.411 23.3545 149.76 23.8054 149.184 24.7072C148.608 25.609 148.32 26.8489 148.32 28.4271V35.4159C148.32 36.4931 148.533 37.4074 148.959 38.1589C149.409 38.9103 150.036 39.2861 150.837 39.2861C151.664 39.2861 152.228 38.735 152.528 37.6328C152.829 36.5306 152.979 34.6018 152.979 31.8463V29.8925ZM148.32 11.8192V24.9702C149.272 22.816 150.9 21.7388 153.204 21.7388C157.889 21.7388 160.231 24.8575 160.231 31.0949C160.231 34.2762 159.58 36.6183 158.277 38.1213C156.999 39.6243 155.071 40.3757 152.491 40.3757C151.188 40.3757 150.186 40.1753 149.485 39.7746C148.808 39.3738 148.345 38.7099 148.094 37.7831L147.831 40H139.264V39.3237H141.331V12.4955H139.264V11.8192H148.32ZM171.236 40.3757C168.005 40.3757 165.575 39.5491 163.947 37.8958C162.343 36.2175 161.542 33.9004 161.542 30.9446C161.542 27.9637 162.444 25.6841 164.247 24.106C166.076 22.5279 168.393 21.7388 171.199 21.7388C176.885 21.7388 179.615 24.5945 179.39 30.3058H168.794V31.7712C168.794 34.2261 169.107 36.0797 169.733 37.3322C170.359 38.5847 171.449 39.2109 173.002 39.2109C175.908 39.2109 177.812 37.6579 178.713 34.5517L179.39 34.6644C178.914 36.468 178.05 37.8708 176.797 38.8728C175.57 39.8748 173.716 40.3757 171.236 40.3757ZM168.831 29.5543H172.701V27.7132C172.701 25.6841 172.576 24.3064 172.326 23.58C172.1 22.8285 171.624 22.4527 170.898 22.4527C170.197 22.4527 169.67 22.8535 169.32 23.6551C168.994 24.4317 168.831 25.7843 168.831 27.7132V29.5543ZM193.278 23.1667C192.351 23.1667 191.537 23.7678 190.836 24.9702C190.134 26.1726 189.784 27.6004 189.784 29.2537V39.3237H192.452V40H180.728V39.3237H182.795V22.7909H180.728V22.1146H189.784V25.7217C190.109 24.4442 190.736 23.4672 191.662 22.7909C192.589 22.0895 193.641 21.7388 194.819 21.7388C195.996 21.7388 196.948 22.077 197.674 22.7533C198.426 23.4046 198.802 24.344 198.802 25.5714C198.802 26.7738 198.526 27.7006 197.975 28.3519C197.424 29.0032 196.572 29.3289 195.42 29.3289C194.293 29.3289 193.454 28.9531 192.902 28.2016C192.376 27.4501 192.314 26.4106 192.715 25.0829H194.067C194.693 23.8054 194.43 23.1667 193.278 23.1667Z" fill="#D5924E"/>
<path d="M21.031 38.6587C20.852 38.4298 21.025 38.1188 21.3156 38.1188H28.9994C29.1755 38.1188 29.33 38.2405 29.3509 38.4154C29.492 39.5959 29.0552 41.4755 26.2948 41.4065C23.7386 41.3426 21.9069 39.7797 21.031 38.6587Z" fill="#D5924E" stroke="#D5924E" stroke-width="0.187872"/>
</svg>
